REM DIRINDEX 1\5,1\2\6,1\2\7,1\3\8,1\3\9,1\4\10,1\4\11,1\4\12
REM DIRNAME cjc026,folder01,folder02,folder03,folder04,folder05,folder06,folder07,folder08,folder09,folder10,folder11
TITLE ""
FILE "EJE_DB3000_5th_5C_14.mp3" MP3
  TRACK 01 AUDIO
    TITLE "0:"
    INDEX 01 00:00:00
  TRACK 02 AUDIO
    TITLE "10:cjc026_10653"
    INDEX 01 00:00:08
  TRACK 03 AUDIO
    TITLE "0:"
    INDEX 01 00:01:33
  TRACK 04 AUDIO
    TITLE "11:cjc026_10654"
    INDEX 01 00:01:68
  TRACK 05 AUDIO
    TITLE "0:"
    INDEX 01 00:03:20
  TRACK 06 AUDIO
    TITLE "12:cjc026_10655"
    INDEX 01 00:03:55
  TRACK 07 AUDIO
    TITLE "0:"
    INDEX 01 00:05:05
  TRACK 08 AUDIO
    TITLE "10:cjc026_10656"
    INDEX 01 00:05:43
  TRACK 09 AUDIO
    TITLE "0:"
    INDEX 01 00:07:01
  TRACK 10 AUDIO
    TITLE "11:cjc026_10657"
    INDEX 01 00:07:36
  TRACK 11 AUDIO
    TITLE "0:"
    INDEX 01 00:08:69
  TRACK 12 AUDIO
    TITLE "12:cjc026_10658"
    INDEX 01 00:09:29
  TRACK 13 AUDIO
    TITLE "0:"
    INDEX 01 00:10:62
  TRACK 14 AUDIO
    TITLE "10:cjc026_10659"
    INDEX 01 00:11:22
  TRACK 15 AUDIO
    TITLE "0:"
    INDEX 01 00:12:66
  TRACK 16 AUDIO
    TITLE "11:cjc026_10660"
    INDEX 01 00:13:24
  TRACK 17 AUDIO
    TITLE "0:"
    INDEX 01 00:14:70
  TRACK 18 AUDIO
    TITLE "12:cjc026_10661"
    INDEX 01 00:15:30
  TRACK 19 AUDIO
    TITLE "0:"
    INDEX 01 00:16:71
  TRACK 20 AUDIO
    TITLE "10:cjc026_10662"
    INDEX 01 00:17:31
  TRACK 21 AUDIO
    TITLE "0:"
    INDEX 01 00:18:54
  TRACK 22 AUDIO
    TITLE "11:cjc026_10663"
    INDEX 01 00:19:14
  TRACK 23 AUDIO
    TITLE "0:"
    INDEX 01 00:20:33
  TRACK 24 AUDIO
    TITLE "12:cjc026_10664"
    INDEX 01 00:20:71
  TRACK 25 AUDIO
    TITLE "0:"
    INDEX 01 00:22:15
  TRACK 26 AUDIO
    TITLE "10:cjc026_10665"
    INDEX 01 00:22:53
  TRACK 27 AUDIO
    TITLE "0:"
    INDEX 01 00:23:65
  TRACK 28 AUDIO
    TITLE "11:cjc026_10666"
    INDEX 01 00:24:27
  TRACK 29 AUDIO
    TITLE "0:"
    INDEX 01 00:25:42
  TRACK 30 AUDIO
    TITLE "12:cjc026_10667"
    INDEX 01 00:26:04
  TRACK 31 AUDIO
    TITLE "0:"
    INDEX 01 00:27:16
  TRACK 32 AUDIO
    TITLE "10:cjc026_10668"
    INDEX 01 00:27:54
  TRACK 33 AUDIO
    TITLE "0:"
    INDEX 01 00:29:03
  TRACK 34 AUDIO
    TITLE "11:cjc026_10669"
    INDEX 01 00:29:41
  TRACK 35 AUDIO
    TITLE "0:"
    INDEX 01 00:30:74
  TRACK 36 AUDIO
    TITLE "12:cjc026_10670"
    INDEX 01 00:31:37
  TRACK 37 AUDIO
    TITLE "0:"
    INDEX 01 00:32:65
  TRACK 38 AUDIO
    TITLE "10:cjc026_10671"
    INDEX 01 00:33:25
  TRACK 39 AUDIO
    TITLE "0:"
    INDEX 01 00:34:55
  TRACK 40 AUDIO
    TITLE "11:cjc026_10672"
    INDEX 01 00:35:23
  TRACK 41 AUDIO
    TITLE "0:"
    INDEX 01 00:37:00
  TRACK 42 AUDIO
    TITLE "12:cjc026_10673"
    INDEX 01 00:37:35
  TRACK 43 AUDIO
    TITLE "0:"
    INDEX 01 00:38:66
  TRACK 44 AUDIO
    TITLE "10:cjc026_10674"
    INDEX 01 00:39:34
  TRACK 45 AUDIO
    TITLE "0:"
    INDEX 01 00:40:45
  TRACK 46 AUDIO
    TITLE "11:cjc026_10675"
    INDEX 01 00:41:11
  TRACK 47 AUDIO
    TITLE "0:"
    INDEX 01 00:42:49
  TRACK 48 AUDIO
    TITLE "12:cjc026_10676"
    INDEX 01 00:43:09
  TRACK 49 AUDIO
    TITLE "0:"
    INDEX 01 00:44:21
  TRACK 50 AUDIO
    TITLE "10:cjc026_10677"
    INDEX 01 00:44:61
  TRACK 51 AUDIO
    TITLE "0:"
    INDEX 01 00:45:70
  TRACK 52 AUDIO
    TITLE "11:cjc026_10678"
    INDEX 01 00:46:35
  TRACK 53 AUDIO
    TITLE "0:"
    INDEX 01 00:47:68
  TRACK 54 AUDIO
    TITLE "12:cjc026_10679"
    INDEX 01 00:48:31
  TRACK 55 AUDIO
    TITLE "0:"
    INDEX 01 00:49:40
  TRACK 56 AUDIO
    TITLE "10:cjc026_10680"
    INDEX 01 00:50:05
  TRACK 57 AUDIO
    TITLE "0:"
    INDEX 01 00:51:30
  TRACK 58 AUDIO
    TITLE "11:cjc026_10681"
    INDEX 01 00:51:65
  TRACK 59 AUDIO
    TITLE "0:"
    INDEX 01 00:53:15
  TRACK 60 AUDIO
    TITLE "12:cjc026_10682"
    INDEX 01 00:53:53
  TRACK 61 AUDIO
    TITLE "0:"
    INDEX 01 00:55:00
  TRACK 62 AUDIO
    TITLE "10:cjc026_10683"
    INDEX 01 00:55:35
  TRACK 63 AUDIO
    TITLE "0:"
    INDEX 01 00:56:52
  TRACK 64 AUDIO
    TITLE "11:cjc026_10684"
    INDEX 01 00:57:15
  TRACK 65 AUDIO
    TITLE "0:"
    INDEX 01 00:58:29
  TRACK 66 AUDIO
    TITLE "12:cjc026_10685"
    INDEX 01 00:58:67
  TRACK 67 AUDIO
    TITLE "0:"
    INDEX 01 01:00:06
  TRACK 68 AUDIO
    TITLE "10:cjc026_10686"
    INDEX 01 01:00:44
  TRACK 69 AUDIO
    TITLE "0:"
    INDEX 01 01:02:02
  TRACK 70 AUDIO
    TITLE "11:cjc026_10687"
    INDEX 01 01:02:39
  TRACK 71 AUDIO
    TITLE "0:"
    INDEX 01 01:04:03
  TRACK 72 AUDIO
    TITLE "12:cjc026_10688"
    INDEX 01 01:04:38
  TRACK 73 AUDIO
    TITLE "0:"
    INDEX 01 01:05:71
  TRACK 74 AUDIO
    TITLE "10:cjc026_10689"
    INDEX 01 01:06:31
  TRACK 75 AUDIO
    TITLE "0:"
    INDEX 01 01:07:64
  TRACK 76 AUDIO
    TITLE "11:cjc026_10690"
    INDEX 01 01:08:24
  TRACK 77 AUDIO
    TITLE "0:"
    INDEX 01 01:09:71
  TRACK 78 AUDIO
    TITLE "12:cjc026_10691"
    INDEX 01 01:10:28
  TRACK 79 AUDIO
    TITLE "0:"
    INDEX 01 01:11:61
  TRACK 80 AUDIO
    TITLE "10:cjc026_10692"
    INDEX 01 01:12:21
  TRACK 81 AUDIO
    TITLE "0:"
    INDEX 01 01:13:60
  TRACK 82 AUDIO
    TITLE "11:cjc026_10693"
    INDEX 01 01:14:20
  TRACK 83 AUDIO
    TITLE "0:"
    INDEX 01 01:15:55
  TRACK 84 AUDIO
    TITLE "12:cjc026_10694"
    INDEX 01 01:16:13
  TRACK 85 AUDIO
    TITLE "0:"
    INDEX 01 01:17:54
  TRACK 86 AUDIO
    TITLE "10:cjc026_10695"
    INDEX 01 01:18:14
  TRACK 87 AUDIO
    TITLE "0:"
    INDEX 01 01:19:25
  TRACK 88 AUDIO
    TITLE "11:cjc026_10696"
    INDEX 01 01:19:63
  TRACK 89 AUDIO
    TITLE "0:"
    INDEX 01 01:21:21
  TRACK 90 AUDIO
    TITLE "12:cjc026_10697"
    INDEX 01 01:21:56
  TRACK 91 AUDIO
    TITLE "0:"
    INDEX 01 01:22:73
